<?xml version="1.0" encoding="UTF-8"?>
<!-- Generator: Adobe Illustrator 25.3.1, SVG Export Plug-In . SVG Version: 6.00 Build 0)  -->
<svg xmlns="http://www.w3.org/2000/svg" xmlns:xlink="http://www.w3.org/1999/xlink" version="1.1" id="Capa_1" x="0px" y="0px" viewBox="0 0 512 512" style="enable-background:new 0 0 512 512;" xml:space="preserve" width="512" height="512">
<g>
	<g>
		<g>
			<path style="fill:#91D728;" d="M156.634,447.286c-2.155,0-4.162-1.681-8.559-5.364c-2.635-2.206-6.243-5.228-11.202-8.994     c-7.689-5.839-15.881-10.778-25.043-15.097c-12.262-5.772-25.177-10.769-37.666-15.602c-2.498-0.967-4.994-1.932-7.485-2.904     c-20.324-7.909-47.435-21.546-62.566-36.099c-2.353-2.233-2.925-6.322-1.264-9.106l10.31-17.566     c3.757-6.421,8.141-13.873,12.389-21.095l7.644-13.005c3.488-5.909,6.952-11.809,10.407-17.731     c0.996-1.67,2.591-2.619,4.382-2.619c1.385,0,2.752,0.59,3.848,1.661c4.354,4.182,8.912,7.949,13.922,11.505     c6.685,4.757,13.78,9.056,21.089,12.779c11.463,5.846,23.669,10.661,35.474,15.316l3.124,1.233     c13.108,5.155,27.001,10.769,40.046,17.702c8.094,4.301,27.759,15.379,35.569,25.321c1.025,1.274,1.553,3.237,1.33,4.984     c-0.24,1.85-0.756,2.715-4.771,9.437l-0.826,1.385c-1.449,2.436-3.312,5.576-5.697,9.641     c-19.301,32.866-24.098,41.214-25.675,43.957c-0.89,1.548-0.89,1.548-1.757,2.949l-1.043,1.685     C160.444,445.167,159.134,447.286,156.634,447.286z"/>
			<g style="opacity:0.25;">
				<path style="fill:#000E3F;" d="M142.155,403.619c-8.257-4.907-10.964-15.705-5.5-24.999c5.435-9.249,16.965-13.483,25.226-8.577      c8.273,4.882,10.034,17.281,4.593,26.55C161.026,405.874,150.433,408.499,142.155,403.619z"/>
				<path style="fill:#000E3F;" d="M42.377,359.485c-8.275-4.886-10.029-17.289-4.588-26.553c5.453-9.279,16.042-11.906,24.315-7.02      c8.267,4.913,10.958,15.705,5.498,25.002C62.166,360.163,50.646,364.398,42.377,359.485z"/>
				<path style="fill:#000E3F;" d="M87.756,389.23c-13.213-5.17-17.286-20.64-9.334-34.178      c7.921-13.484,24.864-19.907,38.078-14.745c13.212,5.162,17.285,20.642,9.334,34.178      C117.923,387.967,100.963,394.392,87.756,389.23z"/>
				<path style="fill:#000E3F;" d="M189.457,392.101c9.931-16.915,10.797-17.689,11.061-19.736c0.158-1.223-0.22-2.667-0.941-3.585      c-7.055-8.967-24.934-19.472-34.986-24.821c-12.837-6.83-26.33-12.286-39.842-17.613c-13.075-5.155-26.221-10.228-38.758-16.615      c-7.439-3.79-14.536-8.095-21.342-12.926c-4.703-3.339-9.355-7.092-14.151-11.691c-1.721-1.693-4.076-1.455-5.262,0.563      c-3.468,5.91-6.939,11.824-10.409,17.735c-6.153,10.465-13.915,23.641-20.05,34.099c-3.439,5.86-6.878,11.719-10.316,17.578      c-1.199,2.009-0.792,5.114,0.967,6.783c14.891,14.319,41.585,27.782,61.93,35.699c15.183,5.908,30.531,11.614,45.282,18.556      c8.998,4.234,17.453,9.274,25.373,15.292c19.871,15.1,17.66,17.853,23.269,8.817      C165.505,433.401,157.452,446.604,189.457,392.101z M164.477,420.616c-7.293-5.289-16.872-2.856-21.898,4.689      c-35.893-25.115-82.17-32.541-118.065-57.656c4.207-8.191,2.069-18.433-4.183-25.494c6.485-11.05,12.97-22.099,19.456-33.149      c7.486,5.451,17.393,2.726,22.295-5.299c35.883,25.093,82.131,32.523,118.013,57.616c-4.683,8.267-2.593,18.9,3.829,26.158      C177.443,398.526,170.96,409.57,164.477,420.616z"/>
			</g>
			<path style="opacity:0.25;fill:#000E3F;" d="M161.279,440.224c-5.604,9.057-3.4,6.286-23.263-8.8     c-7.927-6.02-16.374-11.055-25.381-15.301c-14.743-6.94-30.1-12.639-45.271-18.558c-20.352-7.919-47.047-21.373-61.943-35.701     c-1.757-1.667-2.151-4.768-0.952-6.78l1.497-2.55c3.45,0.291,6.721,2.134,10.179,3.855c6.879,3.441,13.825,6.767,20.818,9.946     c32.183,14.671,62.471,27.286,122.17,26.347c12.998-0.191,25.354-3.031,36.031-10.228c-1.452,2.441-3.316,5.584-5.704,9.653     C157.455,446.609,165.498,433.398,161.279,440.224z"/>
		</g>
		<g>
			<path style="fill:#000E3F;" d="M101.527,378.628c-0.462,0.158-3.44,0.511-3.657,0.424c-2.572,4.37-1.894,4.452-7.215,2.234     c-3.196-1.278,2.175-3.491-0.289-5.474c-3.485-2.979-2.49-5.528-0.372-9.09c1.309-2.235,1.669-2.029,4.854-0.434     c1.331,0.68,3.215,0.883,2.24,2.532c-1.022,1.717-1.804,2.998,0.108,3.763c0.918,0.366,2.365,0.196,2.867-0.643     c2.012-3.425-2.029-7.853-3.047-11.437c-1.499-5.57,2.392-10.664,9.689-9.824c0.378,0.004,0.291-0.235,0.462-0.509     c2.086-3.537,0.856-4.127,4.453-2.69c-0.208-0.083,3.48,1.235,3.459,2.023c-1.749,3.276-2.571,3.612-1.705,4.083     c2.071,1.076,2.627,3.626,2.541,5.14c-0.081,1.513-0.736,2.535-1.59,3.982c-0.666,1.131-1.499,0.781-5.3-0.737     c-3.763-1.505,0.961-3.636-1.849-4.756c-0.91-0.365-2.56,0.023-3.124,0.987c-1.371,2.328,1.618,6.153,3.126,8.738     C109.1,370.23,108.271,376.998,101.527,378.628z"/>
			<path style="fill:#000E3F;" d="M48.043,305.372c-0.158,0.026-1.101-0.088-1.171-0.148c-0.947,1.596-0.736,1.727-2.339,0.275     c-0.956-0.846,0.791-1.284,0.091-2.358c-0.991-1.622-0.581-2.609,0.197-3.922c0.482-0.818,0.589-0.692,1.521,0.298     c0.389,0.42,0.966,0.69,0.613,1.297c-0.376,0.631-0.665,1.105-0.09,1.609c0.278,0.243,0.733,0.301,0.922-0.004     c0.73-1.261-0.38-3.514-0.576-5.158c-0.268-2.53,1.107-4.311,3.349-3.24c0.114,0.039,0.102-0.072,0.162-0.171     c0.766-1.307,0.402-1.671,1.482-0.718c-0.065-0.055,1.046,0.845,1.022,1.176c-0.657,1.217-0.928,1.293-0.665,1.57     c0.625,0.639,0.718,1.756,0.651,2.385c-0.07,0.628-0.314,1.001-0.625,1.532c-0.244,0.413-0.504,0.208-1.66-0.771     c-1.142-0.975,0.415-1.453-0.433-2.18c-0.28-0.251-0.806-0.226-1.012,0.123c-0.507,0.861,0.299,2.767,0.705,3.985     C50.711,302.559,50.21,305.28,48.043,305.372z"/>
			<path style="fill:#000E3F;" d="M17.053,360.181c-0.37,0.641-0.93,1.025-1.802,1.06c-0.155,0.02-1.102-0.088-1.171-0.148     c-0.951,1.602-0.735,1.725-2.339,0.274c-0.956-0.846,0.789-1.281,0.092-2.358c-0.994-1.617-0.582-2.607,0.197-3.922     c0.486-0.825,0.589-0.693,1.521,0.298c0.388,0.422,0.965,0.691,0.613,1.296c-0.379,0.635-0.663,1.101-0.09,1.609     c0.277,0.244,0.733,0.301,0.922-0.004c0.728-1.259-0.379-3.515-0.576-5.158c-0.27-2.527,1.107-4.312,3.349-3.24     c0.115,0.039,0.101-0.07,0.162-0.171c0.766-1.306,0.405-1.674,1.482-0.717c-0.067-0.053,1.045,0.847,1.022,1.176     c-0.66,1.223-0.928,1.295-0.665,1.57c0.623,0.642,0.718,1.755,0.651,2.385c-0.071,0.63-0.311,0.995-0.625,1.532     c-0.244,0.412-0.503,0.207-1.66-0.771c-1.14-0.976,0.414-1.452-0.433-2.18c-0.282-0.247-0.803-0.231-1.011,0.123     c-0.509,0.865,0.3,2.765,0.705,3.985C17.764,357.951,17.537,359.373,17.053,360.181z"/>
			<path style="fill:#000E3F;" d="M187.73,379.941c-0.149,0.021-1.09-0.12-1.154-0.178c-0.948,1.617-0.733,1.703-2.334,0.265     c-0.965-0.832,0.794-1.284,0.081-2.339c-1.017-1.568-0.619-2.528,0.156-3.852c0.484-0.819,0.599-0.708,1.556,0.238     c0.402,0.404,0.996,0.667,0.63,1.272c-0.376,0.639-0.665,1.099-0.088,1.602c0.276,0.239,0.74,0.31,0.921-0.001     c0.742-1.258-0.382-3.526-0.599-5.114c-0.316-2.452,1.085-4.284,3.369-3.275c0.122,0.038,0.098-0.075,0.161-0.173     c0.768-1.302,0.393-1.676,1.487-0.727c-0.068-0.062,1.057,0.858,1.018,1.189c-0.658,1.22-0.928,1.289-0.669,1.573     c0.61,0.66,0.694,1.809,0.614,2.447c-0.078,0.635-0.316,1.009-0.632,1.543c-0.244,0.419-0.484,0.184-1.619-0.841     c-1.132-1.004,0.419-1.463-0.421-2.2c-0.281-0.241-0.799-0.233-1.014,0.126c-0.497,0.859,0.309,2.758,0.691,4.013     C190.38,377.122,189.878,379.914,187.73,379.941z"/>
			<path style="fill:#000E3F;" d="M154.939,435.81c-0.149,0.022-1.094-0.112-1.154-0.178c-0.951,1.623-0.732,1.701-2.334,0.265     c-0.967-0.829,0.795-1.285,0.08-2.339c-1.018-1.567-0.619-2.527,0.156-3.852c0.481-0.814,0.6-0.71,1.556,0.238     c0.401,0.406,0.994,0.67,0.63,1.272c-0.375,0.637-0.664,1.097-0.088,1.602c0.275,0.242,0.739,0.313,0.921-0.001     c0.745-1.264-0.383-3.523-0.599-5.114c-0.312-2.458,1.084-4.282,3.369-3.275c0.122,0.038,0.093-0.067,0.161-0.173     c0.768-1.301,0.39-1.67,1.487-0.727c-0.07-0.059,1.058,0.855,1.018,1.189c-0.659,1.22-0.928,1.288-0.669,1.573     c0.612,0.658,0.694,1.81,0.615,2.448c-0.077,0.634-0.317,1.01-0.632,1.543c-0.244,0.419-0.484,0.184-1.619-0.841     c-1.132-1.005,0.417-1.461-0.422-2.2c-0.275-0.251-0.804-0.225-1.013,0.126c-0.501,0.865,0.31,2.755,0.691,4.013     C157.586,432.975,157.099,435.789,154.939,435.81z"/>
			<path style="fill:#000E3F;" d="M154.762,395.07c-0.718,1.227-1.802,2-3.57,2.233c-0.308,0.075-2.259,0.057-2.392-0.025     c-1.798,3.054-1.357,3.222-4.794,1.068c-2.068-1.211,1.53-2.471-0.044-4.136c-2.236-2.482-1.526-4.281-0.034-6.806     c0.927-1.578,1.168-1.408,3.244,0.001c0.866,0.596,2.102,0.909,1.415,2.068c-0.712,1.217-1.273,2.111-0.033,2.845     c0.6,0.358,1.536,0.353,1.898-0.239c1.427-2.421-1.096-6.11-1.699-8.844c-0.883-4.227,1.86-7.815,6.67-6.648     c0.256,0.029,0.204-0.152,0.32-0.348c1.469-2.494,0.676-3.046,3.007-1.668c-0.136-0.093,2.257,1.236,2.204,1.835     c-1.238,2.32-1.796,2.514-1.241,2.945c1.318,1.008,1.579,3.023,1.475,4.174c-0.098,1.151-0.565,1.873-1.167,2.888     c-0.476,0.792-0.987,0.435-3.408-1.087c-2.407-1.482,0.738-2.681-1.061-3.774c-0.6-0.355-1.68-0.193-2.082,0.485     C151.781,384.912,157.98,389.587,154.762,395.07z"/>
			<path style="fill:#000E3F;" d="M55.968,349.268c-0.714,1.217-1.823,2.037-3.636,2.345c-0.319,0.089-2.292,0.133-2.435,0.049     c-1.786,3.033-1.396,3.256-4.808,1.092c-2.052-1.247,1.522-2.453-0.017-4.183c-2.158-2.607-1.419-4.475,0.067-6.984     c0.937-1.573,1.139-1.371,3.157,0.154c1.548,1.181,2.155,0.884,0.889,3.029c-1.137,1.935,1.69,2.827,2.35,1.716     c2.062-3.509-3.94-8.545-0.892-13.709c1.221-2.082,3.579-2.434,5.874-1.803c0.268,0.041,0.986-1.795,1.415-2.527     c0.332-0.575,1.219,0.128,1.896,0.538c-0.142-0.074,2.25,1.223,2.221,1.807c-1.242,2.32-1.793,2.518-1.234,2.935     c1.341,0.965,1.653,2.905,1.568,4.016c-0.089,1.117-0.545,1.839-1.15,2.859c-0.555,0.935-1.494,0.1-1.875-0.06     c-0.578-0.325-1.066-0.521-1.638-0.853c-2.441-1.418,0.725-2.655-1.088-3.722c-0.593-0.353-1.684-0.205-2.079,0.479     c-0.973,1.644,0.88,4.8,1.818,6.829C57.24,345.171,56.889,347.709,55.968,349.268z"/>
			<path style="fill:#000E3F;" d="M47.981,283.989c0.862,0,1.757,0.37,2.527,1.123c4.791,4.603,9.445,8.356,14.15,11.694     c6.793,4.834,13.897,9.138,21.326,12.921c12.54,6.397,25.691,11.458,38.76,16.624c13.521,5.317,27.008,10.787,39.855,17.614     c10.042,5.336,27.927,15.852,34.97,24.82c0.735,0.913,1.099,2.359,0.943,3.578c-0.201,1.558-0.74,2.378-5.346,10.094     c-1.452,2.441-3.316,5.584-5.704,9.653c-32.006,54.5-23.964,41.289-28.183,48.116c-2.129,3.44-3.131,5.174-4.644,5.174     c-2.47,0-6.301-4.619-18.618-13.974c-7.927-6.02-16.374-11.055-25.38-15.301c-14.743-6.94-30.1-12.639-45.271-18.558     c-20.352-7.919-47.047-21.373-61.943-35.701c-1.757-1.667-2.151-4.768-0.952-6.78l10.317-17.577     c6.115-10.452,13.887-23.629,20.033-34.101c3.487-5.908,6.951-11.81,10.409-17.735C45.894,284.559,46.912,283.989,47.981,283.989      M47.982,280.214C47.981,280.214,47.981,280.214,47.982,280.214c-2.437,0-4.678,1.318-5.994,3.524     c-3.473,5.951-6.934,11.848-10.418,17.75c-2.414,4.114-5.074,8.635-7.785,13.245c-4.206,7.15-8.537,14.513-12.255,20.868     L1.215,353.175c-2.109,3.536-1.408,8.567,1.609,11.429c15.311,14.727,42.675,28.504,63.172,36.481     c2.491,0.972,4.991,1.939,7.491,2.907c12.457,4.821,25.339,9.805,37.541,15.548c9.042,4.263,17.124,9.134,24.705,14.892     c4.921,3.737,8.509,6.743,11.129,8.937c4.76,3.986,6.932,5.806,9.773,5.806c3.552,0,5.243-2.737,7.584-6.525l0.271-0.438     l0.771-1.245c0.884-1.427,0.884-1.427,1.79-3.003c1.575-2.74,6.366-11.077,25.667-43.943c2.384-4.061,4.243-7.198,5.693-9.634     l0.817-1.369c4.2-7.03,4.739-7.934,5.028-10.172c0.291-2.268-0.378-4.73-1.746-6.429c-8.006-10.193-27.941-21.43-36.14-25.786     c-13.142-6.984-27.087-12.619-40.244-17.793l-3.145-1.241c-11.755-4.637-23.91-9.431-35.281-15.232     c-7.23-3.682-14.245-7.932-20.852-12.634c-4.941-3.506-9.429-7.215-13.723-11.341C51.697,280.995,49.863,280.214,47.982,280.214     L47.982,280.214z"/>
		</g>
	</g>
	<g>
		<g>
			<g>
				<path style="fill:#915EFD;" d="M326.721,75.802l65.81,135.411c4.755,9.784,0.672,21.586-9.112,26.341L154.745,348.689      c-9.784,4.755-21.567,0.664-26.322-9.12l-65.81-135.411c-4.755-9.784-0.682-21.558,9.102-26.313L300.388,66.709      c1.432-0.696,2.928-1.216,4.402-1.542C313.506,63.277,322.662,67.45,326.721,75.802z"/>
				<path style="fill:#915EFD;" d="M387.15,341.118c-1.091,3.125-3.398,5.872-6.607,7.424l-136.726,66.444      c-6.46,3.146-14.241,0.462-17.387-5.998c-0.126-0.273-0.252-0.566-0.378-0.839c-1.196-2.999-1.216-6.229-0.21-9.102      c1.091-3.146,3.377-5.873,6.607-7.446l40.416-19.652l8.473-4.111l46.75-22.714l41.087-19.967      c6.166-2.999,13.57-0.671,16.968,5.201c0.126,0.251,0.273,0.524,0.398,0.797C388.115,334.406,388.24,337.951,387.15,341.118z"/>
				<path style="opacity:0.25;fill:#000E3F;" d="M386.551,331.166c1.571,3.233,1.679,6.795,0.59,9.943      c-1.078,3.142-3.38,5.871-6.602,7.437l-136.725,66.449c-6.455,3.137-14.238,0.454-17.38-6.012      c-0.134-0.276-0.257-0.557-0.375-0.827l160.073-77.796C386.272,330.62,386.417,330.89,386.551,331.166z"/>
			</g>
			<path style="fill:#4217A6;" d="M328.089,345.124l-46.75,22.714l-8.473,4.111c-5.642-15.269-16.59-45.093-25.252-68.688     l30.097-14.619l12.206-5.935C310.723,317.145,322.048,335.539,328.089,345.124z"/>
			<path style="fill:#00D5FE;" d="M313.967,84.713l63.676,131.021c2.043,4.204,0.303,9.234-3.882,11.268L152.434,334.568     c-4.185,2.034-9.215,0.294-11.258-3.91L77.499,199.636c-2.025-4.166-0.294-9.215,3.891-11.249L302.718,80.822     c1.525-0.741,3.156-0.982,4.734-0.76C310.169,80.397,312.683,82.072,313.967,84.713z"/>
			<g>
				<path style="fill:#FF8EDE;" d="M234.221,155.684c2.002-6.958,11.012-11.613,17.923-11.119c6.842,0.489,9.852,7.507,2.858,13.827      C245.422,167.049,231.624,164.71,234.221,155.684z"/>
				<path style="fill:#FF8EDE;" d="M311.538,118.107c-6.708-2.725-15.935,1.483-19.817,7.223c-3.843,5.682-0.184,12.385,9.106,10.79      C313.554,133.937,320.24,121.642,311.538,118.107z"/>
			</g>
			<g>
				<path style="fill:#FFFFFF;" d="M235.834,254.974l-58.293,28.331c-0.638,0.31-1.166,0.043-1.363-0.085      c-0.199-0.129-0.656-0.506-0.631-1.215l0.303-8.236c0.53-0.08,1.055-0.21,1.556-0.453l18.038-8.767c0,0,0.001,0,0.001,0      c0,0,0,0,0,0l9.61-4.671c0.003-0.001,0.006-0.001,0.009-0.002c0.003-0.001,0.005-0.005,0.008-0.006l25.483-12.385      c2.428-1.181,3.642-4.01,2.821-6.582l-13.075-41.03c-0.483-1.514-1.598-2.742-3.059-3.367c-1.46-0.627-3.116-0.588-4.546,0.107      l-30.773,14.956c-0.005,0.002-0.01,0.001-0.015,0.004c-0.005,0.003-0.008,0.008-0.013,0.01l-11.906,5.786      c-0.001,0.001-0.003,0-0.004,0.001c-0.001,0-0.001,0.001-0.002,0.002l-23.741,11.538l-3.718-5.502      c-2.071-3.052-6.134-4.139-9.45-2.525l-10.018,4.868c-0.937,0.456-1.328,1.585-0.873,2.523c0.457,0.938,1.585,1.327,2.524,0.872      l10.017-4.868c1.639-0.799,3.65-0.261,4.674,1.246l4.468,6.611c0.042,0.09,0.054,0.191,0.11,0.275l18.013,26.541l0.149,0.221      c0,0.001,0.001,0.001,0.002,0.001l8.344,12.294c0.43,0.634,0.996,1.119,1.614,1.509l-0.327,8.889      c-0.066,1.829,0.809,3.517,2.342,4.516c0.86,0.559,1.833,0.843,2.813,0.843c0.768,0,1.539-0.174,2.262-0.525l1.164-0.566      c-0.55,1.918-0.407,3.941,0.472,5.749c0.943,1.943,2.587,3.401,4.628,4.108c0.866,0.299,1.759,0.448,2.649,0.448      c1.207,0,2.41-0.273,3.527-0.817c1.943-0.943,3.401-2.587,4.108-4.628c0.706-2.041,0.575-4.235-0.37-6.176      c-0.878-1.809-2.38-3.171-4.229-3.924l28.302-13.755c-0.531,1.85-0.438,3.888,0.467,5.751c0,0.001,0,0.001,0,0.001      c1.398,2.875,4.285,4.55,7.285,4.55c1.184,0,2.386-0.261,3.521-0.812c4.009-1.949,5.686-6.796,3.737-10.806      c-0.906-1.864-2.45-3.195-4.233-3.921l7.263-3.53c0.937-0.456,1.328-1.585,0.872-2.523      C237.901,254.909,236.771,254.521,235.834,254.974z M165.091,256.795l-1.225-1.813l8.627-4.193l3.923,6.508l-8.26,4.014      L165.091,256.795z M170.083,221.522l5.274,9.775l-7.894,3.837l-5.753-9.542L170.083,221.522z M181.846,215.806l4.797,10.007      l-7.887,3.833l-5.274-9.775L181.846,215.806z M193.62,210.083l4.318,10.24l-7.9,3.84l-4.797-10.007L193.62,210.083z       M205.375,204.37l3.841,10.472l-7.878,3.828l-4.319-10.239L205.375,204.37z M223.352,221.874l-6.396,3.108l-3.021-8.235      l6.739-3.275L223.352,221.874z M226.832,232.795l-5.949,2.891l-2.619-7.141l6.247-3.036L226.832,232.795z M214.925,250.884      l-2.837-6.726l6.689-3.251l2.523,6.879L214.925,250.884z M205.13,255.645l-3.151-6.573l6.71-3.261l2.837,6.726L205.13,255.645z       M195.35,260.398l-3.465-6.421l6.698-3.255l3.151,6.573L195.35,260.398z M195.443,235.437l-3.773-7.87l7.738-3.76l3.396,8.053      L195.443,235.437z M204.274,235.344l2.945,6.983l-6.873,3.34l-3.271-6.824L204.274,235.344z M192.048,237.088l-7.349,3.571      l-4.148-7.688l7.725-3.754L192.048,237.088z M193.68,240.493l3.271,6.824l-6.86,3.334l-3.597-6.666L193.68,240.493z       M210.619,240.674l-2.945-6.982l7.177-3.488l2.619,7.141L210.619,240.674z M213.544,226.64l-7.339,3.567l-3.396-8.053      l7.715-3.749L213.544,226.64z M177.153,234.623l4.148,7.688l-7.355,3.575l-4.525-7.505L177.153,234.623z M170.535,247.543      l-8.805,4.279l-4.937-7.305l9.217-4.48L170.535,247.543z M175.903,249.132l7.192-3.496l3.597,6.666l-6.866,3.337      L175.903,249.132z M188.487,255.629l3.465,6.421l-6.39,3.105l-3.779-6.268L188.487,255.629z M228.906,244.09l-4.193,2.038      l-2.523-6.879l5.8-2.819l1.791,5.62C230.035,242.847,229.658,243.724,228.906,244.09z M214.349,200.009      c0.448-0.219,0.948-0.23,1.408-0.034c0.46,0.198,0.798,0.568,0.949,1.044l2.81,8.817l-6.888,3.347l-3.841-10.472      L214.349,200.009z M158.301,227.249l5.753,9.542l-9.396,4.567l-6.277-9.287L158.301,227.249z M170.299,264.468l8.074-3.924      l3.779,6.268l-6.397,3.109c-0.751,0.37-1.672,0.121-2.145-0.573L170.299,264.468z M192.173,289.76      c-0.377,1.088-1.154,1.963-2.19,2.466c-1.034,0.503-2.203,0.575-3.292,0.198c-1.087-0.377-1.963-1.154-2.466-2.189v-0.001      c-0.504-1.035-0.573-2.205-0.198-3.292c0.377-1.088,1.154-1.963,2.189-2.466c0.596-0.29,1.236-0.436,1.88-0.436      c0.474,0,0.951,0.08,1.412,0.239c1.087,0.377,1.963,1.154,2.466,2.189C192.479,287.502,192.548,288.672,192.173,289.76z       M229.068,273.232c-2.135,1.039-4.722,0.145-5.761-1.992c-1.038-2.137-0.144-4.721,1.993-5.76      c2.134-1.037,4.721-0.145,5.758,1.992C232.098,269.609,231.204,272.193,229.068,273.232z"/>
				<path style="fill:#FFFFFF;" d="M267.492,184.576c-1.613-0.918-3.606-1.146-5.418-0.504c-0.723,0.23-1.434,0.367-2.077-0.277      c-0.13-0.207-0.284-0.399-0.317-0.652c-0.615-1.944,2.845-2.818,3.316-0.864c1.29-0.238,2.595-0.994,3.639-1.739l0.024-0.012      c-0.716-2.641-2.472-3.732-4.407-3.777c-1.889,0.051-4.243,0.926-5.497,2.343c-2.473,2.785-1.809,7.903,2.54,9.288      c0.648,0.164,1.333,0.219,2.045,0.021c1.483-0.391,3.499-1.103,4.444,0.351c1.481,2.063-2.072,3.729-3.193,1.732      c-1.076,0.554-2.634,1.1-3.688,1.824l0.035,0.072l0.035,0.071c1.3,3.165,5.254,3.487,8.117,2.185      c2.019-0.891,3.504-2.691,3.315-5.049C270.367,187.544,269.333,185.476,267.492,184.576z"/>
				<path style="fill:#FFFFFF;" d="M278.114,178.636c-1.174-1.432-5.242-6.479-6.143-7.595c-2.034,1.226-2.491,1.269-2.915,1.565      c1.439,8.866,4.379,17.931,4.503,18.677c0.036,0.014,0.036,0.014,0.061,0.002c2.188-1.094,3.166-1.419,3.396-1.621      c0.025-0.012,0.038-0.047,0.061-0.059c0.039-1.335-0.841-3.328-0.899-4.557c0.725-0.352,0.631-0.426,1.511-0.703      c0.894,0.731,2.16,2.536,3.053,3.389l0.023-0.012c1.147-0.288,2.415-0.815,3.287-1.479l-0.012-0.024L278.114,178.636z       M274.623,182.278c-1.731-5.287-3.232-8.743,1.789-0.87C275.807,181.702,275.19,182.031,274.623,182.278z"/>
				<path style="fill:#FFFFFF;" d="M293.817,177.611c-0.057-0.181-0.15-0.374-0.232-0.543c-0.727,0.472-5.8,2.399-6.334,2.898      l-0.012-0.025c-1.948-4.193-4.47-8.828-6.383-13.07c-1.107,0.06-3.379,1.225-3.904,1.807c3.401,6.748,4.755,9.229,7.99,16.625      l0.211,0.434c7.846-3.663,8.828-4.41,9.541-4.666c0.678-0.329,0.808-0.242-0.44-2.505      C294.099,178.312,293.946,177.937,293.817,177.611z"/>
				<path style="fill:#FFFFFF;" d="M305.11,172.003l-0.024-0.049c-2.165,1.142-4.265,1.924-6.392,2.959l-0.037-0.011      c-0.449-0.738-1.18-1.998-1.469-3.023c0.21-0.432,1.935-0.94,2.796-1.689c-0.599-1.173-0.983-2.331-1.682-3.337l-0.012-0.025      c-1.001,0.458-2.007,0.975-3.009,1.373l-0.035-0.012c-0.641-0.764-0.916-1.885-1.4-2.816l0.013-0.038l0.073-0.035      c2.033-1.226,4.362-1.911,6.193-3.369l-0.012-0.023c-0.552-1.135-0.946-2.381-1.668-3.433c-0.071-0.145-6.285,2.994-9.94,5.01      c2.377,5.689,5.288,10.941,8.014,16.55c3.249-1.249,6.637-3.194,9.938-4.769C306.253,174.17,305.689,173.009,305.11,172.003z"/>
			</g>
			<g>
				<path style="fill:#FD8A02;" d="M115.808,185.453l5.715,4.435c0.267,0.207,0.619,0.27,0.941,0.167l6.893-2.194      c0.811-0.258,1.566,0.526,1.277,1.326l-2.452,6.806c-0.115,0.318-0.065,0.672,0.132,0.946l4.217,5.878      c0.496,0.691-0.016,1.652-0.867,1.625l-7.231-0.229c-0.338-0.01-0.659,0.146-0.859,0.418l-4.288,5.827      c-0.504,0.685-1.576,0.495-1.813-0.322l-2.017-6.947c-0.094-0.325-0.342-0.582-0.663-0.688l-6.867-2.277      c-0.808-0.268-0.958-1.346-0.254-1.824l5.984-4.065c0.28-0.19,0.448-0.505,0.45-0.843l0.044-7.234      C114.157,185.407,115.136,184.931,115.808,185.453z"/>
				<path style="fill:#FD8A02;" d="M146.548,170.513l5.715,4.435c0.267,0.207,0.619,0.27,0.941,0.167l6.894-2.194      c0.811-0.258,1.566,0.526,1.277,1.327l-2.452,6.806c-0.115,0.318-0.065,0.672,0.132,0.947l4.216,5.878      c0.496,0.692-0.016,1.652-0.867,1.625l-7.231-0.229c-0.338-0.011-0.659,0.146-0.86,0.418l-4.288,5.827      c-0.504,0.685-1.576,0.495-1.813-0.322l-2.017-6.947c-0.094-0.324-0.342-0.582-0.663-0.688l-6.866-2.277      c-0.808-0.268-0.958-1.346-0.254-1.824l5.984-4.065c0.28-0.19,0.448-0.505,0.45-0.843l0.044-7.234      C144.897,170.467,145.875,169.992,146.548,170.513z"/>
				<path style="fill:#FD8A02;" d="M177.287,155.574l5.715,4.435c0.267,0.207,0.619,0.27,0.941,0.167l6.894-2.194      c0.811-0.258,1.566,0.526,1.277,1.326l-2.452,6.806c-0.115,0.318-0.065,0.672,0.132,0.946l4.216,5.878      c0.496,0.691-0.016,1.652-0.867,1.625l-7.231-0.229c-0.338-0.011-0.659,0.146-0.859,0.418l-4.288,5.827      c-0.504,0.685-1.576,0.495-1.813-0.322l-2.017-6.947c-0.094-0.325-0.342-0.582-0.663-0.688l-6.867-2.277      c-0.808-0.268-0.958-1.346-0.254-1.824l5.984-4.065c0.279-0.19,0.448-0.505,0.45-0.843l0.044-7.234      C175.636,155.528,176.615,155.052,177.287,155.574z"/>
			</g>
			<g style="opacity:0.25;">
				<path style="fill:#000E3F;" d="M281.339,367.838c11.577-27.098,3.712-59.439-3.628-79.196l12.206-5.935      c20.806,34.438,32.131,52.832,38.172,62.417L281.339,367.838z"/>
				<path style="fill:#000E3F;" d="M326.721,75.802l65.81,135.411c4.755,9.784,0.672,21.586-9.112,26.341L154.745,348.689      c-9.784,4.755-21.567,0.664-26.322-9.12l-5.08-10.454c4.695-2.213,9.281-4.465,13.802-6.754l4.032,8.296      c2.043,4.204,7.073,5.944,11.258,3.91l221.327-107.565c4.185-2.034,5.925-7.064,3.882-11.268L313.967,84.713      c-1.284-2.641-3.798-4.316-6.515-4.651c-0.712-4.92-1.581-9.878-2.662-14.894C313.506,63.277,322.662,67.45,326.721,75.802z"/>
			</g>
			<path style="opacity:0.25;fill:#4217A6;" d="M313.967,84.713l63.676,131.021c2.043,4.204,0.303,9.234-3.882,11.268     L152.434,334.568c-4.185,2.034-9.215,0.294-11.258-3.91l-4.032-8.296c2.698-1.357,5.358-2.741,8.001-4.118     c113.489-59.203,169.839-134.117,163.885-223.107c-0.332-4.99-0.858-10-1.578-15.076     C310.169,80.397,312.683,82.072,313.967,84.713z"/>
			<path style="opacity:0.75;fill:#FFFFFF;" d="M106.413,222.211c13.258,20.667,31.615,58.495,39.436,80.859     c0.813,2.325-2.402,3.9-3.733,1.814c-12.811-20.059-31.246-58.041-39.212-80.968     C102.145,221.734,105.161,220.256,106.413,222.211z"/>
		</g>
		<g>
			<path style="fill:#000E3F;" d="M395.204,226.896c1.888-5.474,1.552-11.326-0.965-16.506L328.424,74.985     c-4.363-8.997-14.262-13.78-24.036-11.661c-1.636,0.357-3.272,0.923-4.824,1.678L70.891,176.14     c-10.696,5.202-15.185,18.142-9.983,28.839l65.815,135.426c2.517,5.181,6.921,9.082,12.353,10.969     c2.328,0.797,4.698,1.195,7.089,1.195c3.209,0,6.418-0.734,9.396-2.181l91.088-44.275l3.23,8.809     c7.467,20.344,15.73,42.849,20.638,56.083l-38.906,18.897c-3.566,1.741-6.25,4.761-7.551,8.515     c-1.174,3.398-1.091,7.11,0.273,10.487c0.126,0.294,0.252,0.608,0.398,0.902c1.741,3.586,4.782,6.271,8.536,7.571     c1.594,0.546,3.23,0.818,4.866,0.818c2.223,0,4.446-0.503,6.502-1.51l136.726-66.444c3.587-1.741,6.271-4.761,7.571-8.515     c0.545-1.594,0.818-3.23,0.818-4.866c0-2.223-0.503-4.446-1.51-6.523c-0.126-0.294-0.294-0.587-0.482-0.923     c-3.88-6.732-12.416-9.354-19.421-5.956l-39.556,19.212c-5.872-9.354-16.569-26.741-36.032-58.956l91.486-44.464     C389.436,236.733,393.316,232.35,395.204,226.896z M369.993,326.856c1.552-0.755,3.209-1.112,4.845-1.112     c3.859,0,7.613,2.014,9.627,5.516c0.126,0.231,0.273,0.482,0.398,0.734c1.279,2.663,1.468,5.684,0.503,8.494     c-0.965,2.81-2.978,5.054-5.663,6.355l-136.705,66.444c-2.685,1.3-5.684,1.489-8.494,0.524c-2.81-0.986-5.076-2.978-6.376-5.663     c-0.126-0.252-0.231-0.504-0.315-0.692c-1.007-2.496-1.07-5.264-0.189-7.802c0.965-2.789,2.978-5.054,5.642-6.355     L369.993,326.856z M324.733,343.299c0.231,0.357,0.44,0.692,0.65,1.028l-51.469,25.022     c-4.908-13.318-13.087-35.571-20.491-55.727l-3.356-9.165l39.283-19.086C305.395,311.965,317.308,331.449,324.733,343.299z      M153.925,346.99c-4.279,2.076-9.102,2.37-13.612,0.818c-4.488-1.573-8.117-4.782-10.193-9.061L64.305,203.343     c-4.279-8.83-0.587-19.505,8.243-23.805L301.221,68.4c1.279-0.629,2.622-1.09,3.964-1.384c1.279-0.273,2.559-0.42,3.838-0.42     c6.711,0,12.962,3.796,16.003,10.026l65.815,135.426c2.076,4.279,2.349,9.102,0.797,13.612c-1.552,4.488-4.761,8.117-9.04,10.193     L153.925,346.99z"/>
			<path style="fill:#000E3F;" d="M265.177,140.061c1.243,0.381,2.479,0.57,3.694,0.57c2.146,0,4.218-0.592,6.125-1.764     c6.903-4.247,7.332-13.181,4.23-19.43c-0.463-0.933-1.594-1.313-2.53-0.851c-0.933,0.464-1.315,1.596-0.851,2.53     c2.358,4.752,2.17,11.461-2.828,14.535c-2.569,1.581-5.081,1.307-6.732,0.801c-3.167-0.972-6.159-3.697-7.624-6.943     c-0.43-0.95-1.548-1.373-2.497-0.944c-0.95,0.429-1.373,1.546-0.944,2.497C257.14,135.318,260.956,138.766,265.177,140.061z"/>
			<path style="fill:#000E3F;" d="M295.547,114.054c0.93-1.769,0.932-3.728,0.289-5.426l4.056-3.484     c0.79-0.679,0.881-1.871,0.202-2.662c-0.676-0.79-1.868-0.88-2.661-0.202l-3.393,2.915l1.29-4.118     c0.311-0.994-0.243-2.054-1.237-2.366c-0.987-0.306-2.052,0.243-2.366,1.237l-1.361,4.344c-0.625-0.054-1.28-0.013-1.955,0.142     c-3.193,0.734-5.86,3.792-5.571,7.664C283.345,118.913,292.445,119.958,295.547,114.054z"/>
			<path style="fill:#000E3F;" d="M240.915,140.605c6.558,1.209,11.359-6.592,6.315-11.2c-2.866-2.619-6.918-2.412-9.468-0.355     c-0.539,0.435-0.976,0.924-1.32,1.449l-4.257-1.614c-0.968-0.365-2.062,0.121-2.434,1.097c-0.369,0.975,0.122,2.065,1.097,2.434     l4.033,1.529l-4.389,0.866c-1.023,0.202-1.688,1.194-1.486,2.217c0.177,0.899,0.967,1.523,1.849,1.523     c0.121,0,0.245-0.012,0.368-0.037l5.246-1.036C237.408,139.035,238.949,140.243,240.915,140.605z"/>
			<path style="fill:#000E3F;" d="M237.015,178.86c-0.456-0.938-1.585-1.326-2.523-0.872c-0.937,0.456-1.328,1.585-0.872,2.523     l36.838,75.797c0.327,0.672,0.999,1.063,1.699,1.063c0.278,0,0.558-0.061,0.825-0.191c0.937-0.456,1.328-1.585,0.872-2.523     L237.015,178.86z"/>
			<path style="fill:#000E3F;" d="M267.434,209.947c0.327,0.672,0.999,1.063,1.699,1.063c0.277,0,0.558-0.061,0.824-0.19     l58.592-28.475c0.937-0.456,1.328-1.585,0.872-2.523c-0.457-0.939-1.586-1.328-2.523-0.872l-58.591,28.475     C267.37,207.879,266.979,209.009,267.434,209.947z"/>
			<path style="fill:#000E3F;" d="M334.129,193.828l-58.592,28.476c-0.937,0.456-1.328,1.585-0.872,2.524     c0.327,0.672,1,1.063,1.699,1.063c0.278,0,0.558-0.061,0.824-0.19l58.592-28.476c0.937-0.456,1.328-1.585,0.872-2.523     C336.196,193.763,335.067,193.375,334.129,193.828z"/>
			<path style="fill:#000E3F;" d="M325.707,216.317l-43.371,21.079c-0.937,0.455-1.328,1.585-0.872,2.523     c0.327,0.672,1,1.063,1.699,1.063c0.277,0,0.558-0.061,0.824-0.19l43.371-21.079c0.937-0.456,1.328-1.585,0.872-2.523     C327.775,216.25,326.645,215.863,325.707,216.317z"/>
		</g>
	</g>
	<g>
		<g>
			<path style="fill:#00D5FE;" d="M455.608,201.889c-5.876,0-11.123-3.285-13.692-8.57l-14.487-29.808     c-0.739-1.522-2.306-2.505-3.994-2.505c-0.171,0-0.342,0.01-0.515,0.031l-32.096,4.386c-0.293,0.034-0.541,0.048-0.782,0.048     c-3.088,0-5.634-2.254-6.056-5.36c-0.275-1.86,0.359-3.73,1.743-5.11l23.327-22.572c1.303-1.311,1.641-3.351,0.814-5.049     l-2.359-4.855c-3.67-7.555-0.512-16.688,7.042-20.359l32.553-15.821c2.094-1.018,4.33-1.534,6.644-1.534     c5.798,0,11.182,3.367,13.715,8.577l34.406,70.795c0.509,1.049,0.893,2.149,1.142,3.271c0.022,0.083,0.049,0.202,0.068,0.335     c1.423,6.806-1.957,13.677-8.245,16.733l-32.579,15.833C460.158,201.373,457.921,201.889,455.608,201.889z"/>
			<path style="opacity:0.25;fill:#4217A6;" d="M494.008,182.822l-32.58,15.834c-6.625,3.22-14.595,0.463-17.815-6.162     l-14.487-29.809c-1.18-2.428-3.763-3.835-6.426-3.524l-32.133,4.391c-2.554,0.292-4.423-1.564-4.713-3.695     c8.943-10.463,37.003-29.134,55.462,4.154c0.731,1.318,1.447,2.718,2.146,4.203c8.407,17.856,14.313,17.6,29.125,9.791     c5.764-3.039,23.598-12.368,28.625-9.91C502.471,173.928,499.632,180.089,494.008,182.822z"/>
			<path style="opacity:0.75;fill:#FFFFFF;" d="M437.117,104.839c5.056-3.628,11.771-7.252,11.637-7.177     c5.399-2.853,10.811-0.65,13.213,3.478c1.837,3.362,6.238,13.566,8.177,20.181c0.492,1.675-1.74,2.753-2.753,1.338     c-10.422-14.614-9.34-20.187-13.983-20.41c-1.64-0.115-7.108,2.877-15.035,5.178c-0.775,0.225-1.584-0.22-1.809-0.995     C436.389,105.823,436.63,105.19,437.117,104.839z"/>
		</g>
		<g>
			<path style="fill:#000E3F;" d="M472.345,149.918c1.314,2.704,1.47,5.585-0.168,9.103c-0.226,0.653-2.487,4.165-2.798,4.317     c0.276,0.567,1.829,3.931,2.104,4.499l0.124,0.255c0.489,1.007,0.196,2.002-1.567,2.859c-0.818,0.397-1.667,0.886-2.612,1.346     l-1.763,0.857c-4.589,2.23-2.562-5.597-7.389-4.805c-7.08,0.952-9.453-2.488-12.175-8.088c-1.222-2.514-1.56-3.209,1.333-4.615     c0.945-0.459,1.763-0.699,2.549-1.005c2.105-0.79,4.095-2.61,5.35-0.029c0.335,0.69,0.672,1.227,1.008,1.917     c0.643,1.323,1.79,2.554,3.993,1.483c1.319-0.641,2.433-2.351,1.792-3.67c-2.6-5.35-12.081-5.178-17.692-7.429     c-3.015-1.251-6.026-3.755-7.494-6.776c-1.011-2.079-1.294-4.431-0.486-6.77c0.743-2.149,2.396-4.507,4.073-6.022     c0.348-0.403-0.025-0.531-0.238-0.971c-0.154-0.317-2.428-4.19-2.579-4.502c-0.613-1.262,1.652-2.047,3.16-2.78     c-0.312,0.152,4.819-2.576,5.809-1.812l2.506,5.157c0.276,0.567,0.652,0.694,1.247,0.486c3.299-1.218,7.129,0.579,9.018,2.073     c1.892,1.488,2.627,3.158,3.728,5.422c0.611,1.257-0.023,2.033-1.346,2.676l-1.007,0.489c-1.257,0.611-2.202,1.228-3.459,1.839     c-5.412,2.63-3.864-4.427-7.891-2.47c-1.323,0.643-2.316,2.761-1.583,4.269c1.773,3.649,9.497,4.02,14.245,4.821     C466.54,142.783,470.664,146.458,472.345,149.918z"/>
			<path style="fill:#000E3F;" d="M453.748,86.699c4.95,0,9.708,2.765,12.016,7.514l34.406,70.795     c0.453,0.932,0.784,1.891,0.998,2.855c0.02,0.075,0.039,0.151,0.045,0.232c1.258,5.833-1.581,11.994-7.205,14.727l-32.58,15.834     c-1.878,0.913-3.866,1.346-5.821,1.346c-4.942,0-9.687-2.761-11.994-7.507l-14.487-29.809c-1.071-2.204-3.298-3.566-5.692-3.566     c-0.243,0-0.488,0.014-0.734,0.043l-32.133,4.391c-0.179,0.02-0.355,0.031-0.527,0.031c-2.281,0-3.916-1.744-4.185-3.726     c-0.178-1.203,0.178-2.494,1.206-3.52l23.306-22.553c1.891-1.902,2.38-4.802,1.2-7.23l-2.36-4.856     c-3.22-6.626-0.456-14.616,6.169-17.836l32.552-15.821C449.805,87.131,451.792,86.699,453.748,86.699 M453.749,82.923     L453.749,82.923c-2.604,0-5.117,0.58-7.471,1.724l-32.552,15.821c-8.49,4.126-12.041,14.391-7.915,22.881l2.36,4.856     c0.475,0.978,0.281,2.151-0.483,2.919l-23.254,22.501c-1.852,1.848-2.682,4.305-2.315,6.784c0.545,4.009,3.878,6.949,7.92,6.949     c0.312,0,0.632-0.018,0.957-0.055l32.215-4.401c0.026-0.002,0.125-0.008,0.223-0.008c0.97,0,1.871,0.566,2.297,1.441     l14.487,29.809c2.888,5.941,8.784,9.632,15.389,9.632c2.602,0,5.116-0.58,7.471-1.725l32.58-15.834     c7.05-3.426,10.848-11.119,9.28-18.753c-0.031-0.207-0.071-0.373-0.099-0.486c-0.282-1.245-0.71-2.463-1.273-3.622L469.16,92.562     C466.314,86.707,460.265,82.923,453.749,82.923L453.749,82.923z"/>
		</g>
	</g>
	<g>
		<g>
			<path style="fill:#FD8A02;" d="M491.328,290.623c1.838,1.695,5.449,3.64,9.278,11.024c0.343,0.661,0.7,1.328,1.141,1.924     c0.615,0.83,1.704,0.758,2.203-0.17c1.127-2.098,0.837-5.184,4.73-11.042c2.284-3.437,4.753-4.728,2.306-6.352     c-6.101-4.048-8.845-10.88-10.076-12.627c-0.531-0.754-1.573-0.694-2.055,0.083c-0.516,0.833-0.72,1.793-0.978,2.728     c-1.913,6.921-5.275,10.379-6.62,12.027C490.921,288.631,490.695,290.04,491.328,290.623z"/>
			<path style="fill:#FD8A02;" d="M425.345,256.889c2.117,1.951,6.27,4.182,10.687,12.696c0.395,0.762,0.806,1.53,1.314,2.217     c0.708,0.956,1.963,0.873,2.537-0.196c1.299-2.418,0.964-5.971,5.448-12.717c2.631-3.959,5.475-5.445,2.656-7.316     c-7.027-4.663-10.188-12.531-11.605-14.544c-0.612-0.869-1.812-0.8-2.366,0.095c-0.595,0.96-0.829,2.065-1.127,3.142     c-2.208,7.986-6.094,11.977-7.624,13.852C424.876,254.594,424.615,256.217,425.345,256.889z"/>
			<path style="fill:#FD8A02;" d="M420.954,324.725c0.441,0.407,0.889,0.813,1.37,1.171c6.779,5.04,9.008,11.548,10.631,13.741     c0.707,0.956,1.963,0.873,2.537-0.195c0.4-0.745,0.671-1.583,0.867-2.412c3.057-12.928,11.453-14.824,7.237-17.621     c-7.027-4.662-10.187-12.531-11.605-14.544c-0.612-0.868-1.812-0.8-2.366,0.096c-0.595,0.96-0.829,2.065-1.127,3.142     c-2.208,7.986-6.095,11.977-7.625,13.852C420.484,322.43,420.222,324.051,420.954,324.725z"/>
		</g>
		<g>
			<path style="fill:#FD8A02;" d="M11.083,122.075c1.838,1.695,5.449,3.64,9.278,11.024c0.343,0.661,0.7,1.328,1.141,1.924     c0.615,0.83,1.704,0.758,2.203-0.17c1.127-2.098,0.838-5.184,4.73-11.042c2.284-3.437,4.753-4.728,2.306-6.352     c-6.101-4.048-8.844-10.88-10.076-12.627c-0.531-0.754-1.573-0.694-2.055,0.083c-0.516,0.833-0.72,1.793-0.978,2.728     c-1.913,6.921-5.275,10.379-6.62,12.027C10.675,120.083,10.449,121.492,11.083,122.075z"/>
			<path style="fill:#FD8A02;" d="M96.293,115.013c2.117,1.951,6.27,4.182,10.687,12.696c0.395,0.762,0.806,1.53,1.314,2.217     c0.708,0.956,1.963,0.873,2.538-0.196c1.299-2.418,0.964-5.971,5.448-12.718c2.631-3.959,5.475-5.445,2.656-7.316     c-7.027-4.663-10.187-12.531-11.605-14.544c-0.612-0.869-1.812-0.8-2.366,0.095c-0.595,0.96-0.829,2.065-1.127,3.142     c-2.208,7.986-6.094,11.977-7.624,13.852C95.823,112.718,95.563,114.341,96.293,115.013z"/>
			<path style="fill:#FD8A02;" d="M10.988,195.131c0.441,0.407,0.889,0.814,1.37,1.171c6.78,5.04,9.008,11.547,10.631,13.741     c0.708,0.956,1.963,0.873,2.537-0.196c0.4-0.745,0.671-1.583,0.867-2.412c3.057-12.928,11.453-14.824,7.237-17.622     c-7.027-4.662-10.187-12.531-11.605-14.544c-0.612-0.868-1.812-0.8-2.366,0.096c-0.595,0.96-0.829,2.065-1.127,3.142     c-2.208,7.986-6.095,11.977-7.625,13.852C10.518,192.836,10.257,194.457,10.988,195.131z"/>
		</g>
	</g>
</g>















</svg>
